<?xml version="1.0" standalone="no"?>
<!DOCTYPE svg PUBLIC "-//W3C//DTD SVG 20010904//EN"
 "http://www.w3.org/TR/2001/REC-SVG-20010904/DTD/svg10.dtd">
<svg version="1.0" xmlns="http://www.w3.org/2000/svg"
 width="342.000000pt" height="90.000000pt" viewBox="0 0 342.000000 90.000000"
 preserveAspectRatio="xMidYMid meet">

<g transform="translate(0.000000,90.000000) scale(0.100000,-0.100000)"
fill="white" stroke="none">
<path d="M843 739 c-161 -82 -297 -149 -303 -149 -5 0 -10 16 -10 35 l0 35
-80 0 -79 0 -3 -81 -3 -80 -178 -92 -179 -92 131 -3 131 -3 0 -64 0 -65 -67
-34 -68 -35 78 -1 77 0 290 145 289 145 168 -86 c92 -48 218 -113 280 -145
111 -59 112 -59 195 -59 l83 1 -30 17 c-30 17 -29 17 93 20 l122 3 0 59 0 60
-40 0 c-22 0 -40 4 -40 9 0 5 159 89 353 187 l352 177 305 -153 c168 -84 334
-169 370 -189 l65 -36 -77 -3 -78 -3 0 -129 0 -130 160 0 c153 0 160 1 160 20
0 19 -7 20 -92 20 -144 0 -139 -3 -136 94 l3 81 113 -4 c62 -2 134 0 160 4
l47 7 -210 106 c-115 59 -220 114 -232 122 -20 12 -23 24 -23 72 l0 58 -74 0
c-66 0 -74 -2 -79 -20 -5 -19 -20 -14 -194 73 l-188 95 -232 -117 -233 -116
-388 198 c-214 108 -395 197 -403 196 -8 -1 -146 -68 -306 -150z m658 -105
c192 -97 349 -179 349 -183 0 -3 -82 -49 -182 -101 l-183 -95 113 -3 113 -3
-3 -27 -3 -27 -127 -3 -127 -3 -292 147 -292 147 -263 -131 -264 -132 0 60 0
60 -47 0 c-25 0 -43 3 -39 8 6 6 884 459 895 461 2 1 160 -78 352 -175z"/>
<path d="M1040 575 c0 -34 1 -35 40 -35 39 0 40 1 40 35 0 34 -1 35 -40 35
-39 0 -40 -1 -40 -35z"/>
<path d="M1160 575 c0 -33 2 -35 35 -35 33 0 35 2 35 35 0 33 -2 35 -35 35
-33 0 -35 -2 -35 -35z"/>
<path d="M1040 485 c0 -22 4 -25 40 -25 36 0 40 3 40 25 0 23 -4 25 -40 25
-36 0 -40 -2 -40 -25z"/>
<path d="M1160 485 c0 -22 4 -25 35 -25 31 0 35 3 35 25 0 22 -4 25 -35 25
-31 0 -35 -3 -35 -25z"/>
<path d="M2240 310 l0 -50 65 0 65 0 0 50 0 50 -65 0 -65 0 0 -50z"/>
<path d="M2420 310 l0 -50 55 0 55 0 0 50 0 50 -55 0 -55 0 0 -50z"/>
<path d="M792 319 c-29 -16 -52 -27 -52 -24 0 7 -62 -27 -71 -38 -3 -5 -12 -9
-20 -10 -8 -2 -27 -10 -44 -20 -16 -9 -50 -27 -74 -40 -25 -13 -46 -29 -49
-37 -2 -9 0 -11 5 -5 4 6 69 41 143 79 74 37 139 72 145 77 5 5 16 9 25 9 17
1 56 27 49 34 -3 3 -28 -8 -57 -25z"/>
<path d="M875 340 c-4 -6 11 -18 32 -26 21 -9 42 -21 46 -28 6 -7 7 -6 5 3 -6
21 -76 63 -83 51z"/>
<path d="M970 290 c0 -10 37 -33 57 -36 7 -1 26 -12 43 -24 17 -12 36 -23 43
-24 24 -5 67 -29 67 -38 0 -5 6 -8 13 -6 6 1 27 -6 44 -15 18 -10 45 -22 60
-27 l28 -10 -24 20 c-12 11 -27 17 -32 14 -5 -3 -9 0 -9 7 0 7 -3 10 -6 6 -3
-3 -24 5 -45 19 -21 13 -39 21 -39 17 0 -5 -4 -3 -8 2 -11 16 -192 104 -192
95z"/>
<path d="M747 223 c-4 -3 -7 -15 -7 -25 0 -14 8 -18 40 -18 36 0 40 3 40 25 0
22 -4 25 -33 25 -19 0 -37 -3 -40 -7z"/>
<path d="M847 223 c-4 -3 -7 -15 -7 -25 0 -13 8 -18 30 -18 25 0 30 4 30 25 0
20 -5 25 -23 25 -13 0 -27 -3 -30 -7z"/>
<path d="M2240 175 l0 -45 65 0 65 0 0 45 0 45 -65 0 -65 0 0 -45z"/>
<path d="M2420 175 l0 -45 55 0 55 0 0 45 0 45 -55 0 -55 0 0 -45z"/>
<path d="M744 145 c-11 -28 4 -45 41 -45 32 0 35 2 35 30 0 28 -3 30 -35 30
-22 0 -38 -6 -41 -15z"/>
<path d="M847 153 c-4 -3 -7 -17 -7 -30 0 -19 5 -23 30 -23 27 0 30 3 30 30 0
25 -4 30 -23 30 -13 0 -27 -3 -30 -7z"/>
<path d="M435 134 c-37 -19 -42 -24 -24 -24 8 0 25 9 39 20 30 24 25 25 -15 4z"/>
</g>
</svg>
